<?xml version="1.0" encoding="UTF-8"?>
<svg width="104px" height="104px" viewBox="0 0 104 104" version="1.1" xmlns="http://www.w3.org/2000/svg" xmlns:xlink="http://www.w3.org/1999/xlink">
    <title>Group 133</title>
    <defs>
        <polygon id="path-1" points="-1.42108547e-14 0 5.15582725 0 5.15582725 5.15625439 -1.42108547e-14 5.15625439"></polygon>
        <polygon id="path-3" points="0 7.10542736e-15 5.15625439 7.10542736e-15 5.15625439 5.15602725 0 5.15602725"></polygon>
        <polygon id="path-5" points="0 0 5.15602725 0 5.15602725 5.15625439 0 5.15625439"></polygon>
        <polygon id="path-7" points="0 -1.42108547e-14 5.15625439 -1.42108547e-14 5.15625439 5.15602725 0 5.15602725"></polygon>
    </defs>
    <g id="Page-1" stroke="none" stroke-width="1" fill="none" fill-rule="evenodd">
        <g id="Group-133">
            <path d="M56.6186,30.6682 C55.6116,30.6582 54.8026,29.8342 54.8116,28.8262 C54.8216,27.8192 55.6456,27.0102 56.6536,27.0202 C57.6606,27.0292 58.4696,27.8542 58.4606,28.8612 C58.4506,29.8692 57.6256,30.6782 56.6186,30.6682" id="Fill-1" fill="#FEFEFE"></path>
            <path d="M65.9081,28.5953 C64.6431,28.5833 63.6281,27.5483 63.6401,26.2833 C63.6521,25.0183 64.6871,24.0023 65.9521,24.0153 C67.2171,24.0273 68.2321,25.0623 68.2201,26.3273 C68.2081,27.5923 67.1731,28.6073 65.9081,28.5953" id="Fill-3" fill="#FEFEFE"></path>
            <path d="M75.5214,29.8763 C73.9404,29.8613 72.6714,28.5673 72.6864,26.9863 C72.7014,25.4053 73.9954,24.1363 75.5764,24.1513 C77.1574,24.1663 78.4264,25.4603 78.4114,27.0413 C78.3964,28.6223 77.1024,29.8913 75.5214,29.8763" id="Fill-5" fill="#FEFEFE"></path>
            <path d="M84.4664,33.7813 C82.7214,33.7643 81.3204,32.3363 81.3374,30.5923 C81.3544,28.8473 82.7824,27.4463 84.5264,27.4633 C86.2714,27.4793 87.6724,28.9073 87.6554,30.6523 C87.6394,32.3973 86.2114,33.7983 84.4664,33.7813" id="Fill-7" fill="#FEFEFE"></path>
            <path d="M92.01,39.864 C90.237,39.847 88.813,38.396 88.83,36.623 C88.847,34.85 90.298,33.426 92.071,33.443 C93.844,33.46 95.268,34.911 95.251,36.684 C95.234,38.457 93.783,39.881 92.01,39.864" id="Fill-9" fill="#FEFEFE"></path>
            <path d="M97.5438,47.5904 C95.8728,47.5744 94.5308,46.2064 94.5468,44.5354 C94.5628,42.8644 95.9308,41.5224 97.6018,41.5384 C99.2728,41.5544 100.6148,42.9224 100.5988,44.5934 C100.5828,46.2644 99.2148,47.6064 97.5438,47.5904" id="Fill-11" fill="#FEFEFE"></path>
            <g id="Group-15" transform="translate(97.933173, 51.181773)">
                <mask id="mask-2" fill="white">
                    <use xlink:href="#path-1"></use>
                </mask>
                <g id="Clip-14"></g>
                <path d="M2.55312725,5.15612725 C1.12912725,5.14212725 -0.0138727526,3.97712725 0.000127247391,2.55312725 C0.0131272474,1.12912725 1.17812725,-0.0138727526 2.60212725,0.000127247391 C4.02612725,0.0131272474 5.16912725,1.17912725 5.15612725,2.60312725 C5.14212725,4.02612725 3.97712725,5.17012725 2.55312725,5.15612725" id="Fill-13" fill="#FEFEFE" mask="url(#mask-2)"></path>
            </g>
            <path d="M100.3351,65.2244 C99.3271,65.2144 98.5181,64.3894 98.5271,63.3814 C98.5371,62.3734 99.3621,61.5644 100.3701,61.5734 C101.3781,61.5834 102.1871,62.4084 102.1781,63.4164 C102.1681,64.4244 101.3431,65.2344 100.3351,65.2244" id="Fill-16" fill="#FEFEFE"></path>
            <path d="M69.8941,40.3707 C69.1881,39.6517 69.1991,38.4967 69.9191,37.7907 C70.6381,37.0857 71.7931,37.0967 72.4981,37.8157 C73.2041,38.5347 73.1931,39.6897 72.4741,40.3957 C71.7541,41.1007 70.6001,41.0897 69.8941,40.3707" id="Fill-18" fill="#FEFEFE"></path>
            <path d="M77.9284,45.4735 C77.0424,44.5705 77.0564,43.1205 77.9594,42.2345 C78.8624,41.3485 80.3124,41.3625 81.1984,42.2655 C82.0844,43.1685 82.0704,44.6185 81.1674,45.5045 C80.2644,46.3905 78.8144,46.3765 77.9284,45.4735" id="Fill-20" fill="#FEFEFE"></path>
            <path d="M83.8203,53.1769 C82.7133,52.0479 82.7303,50.2359 83.8593,49.1289 C84.9873,48.0219 86.8003,48.0389 87.9073,49.1679 C89.0143,50.2959 88.9973,52.1089 87.8683,53.2159 C86.7403,54.3229 84.9273,54.3059 83.8203,53.1769" id="Fill-22" fill="#FEFEFE"></path>
            <path d="M87.3841,62.2632 C86.1621,61.0172 86.1811,59.0172 87.4271,57.7952 C88.6721,56.5732 90.6731,56.5922 91.8941,57.8382 C93.1161,59.0842 93.0971,61.0842 91.8521,62.3062 C90.6061,63.5282 88.6061,63.5092 87.3841,62.2632" id="Fill-24" fill="#FEFEFE"></path>
            <path d="M88.4171,71.8985 C87.1751,70.6325 87.1951,68.6005 88.4601,67.3585 C89.7261,66.1165 91.7591,66.1365 93.0011,67.4015 C94.2421,68.6675 94.2231,70.7005 92.9571,71.9415 C91.6911,73.1835 89.6591,73.1645 88.4171,71.8985" id="Fill-26" fill="#FEFEFE"></path>
            <path d="M86.8668,81.2749 C85.6968,80.0819 85.7148,78.1659 86.9078,76.9949 C88.1008,75.8249 90.0168,75.8429 91.1878,77.0359 C92.3578,78.2289 92.3398,80.1449 91.1468,81.3159 C89.9538,82.4869 88.0378,82.4679 86.8668,81.2749" id="Fill-28" fill="#FEFEFE"></path>
            <path d="M82.762,89.541 C81.765,88.525 81.78,86.892 82.797,85.895 C83.813,84.898 85.446,84.913 86.443,85.93 C87.44,86.946 87.424,88.579 86.408,89.576 C85.392,90.573 83.759,90.557 82.762,89.541" id="Fill-30" fill="#FEFEFE"></path>
            <path d="M76.3714,95.7178 C75.6654,94.9978 75.6764,93.8428 76.3964,93.1368 C77.1154,92.4308 78.2714,92.4418 78.9774,93.1608 C79.6834,93.8808 79.6724,95.0368 78.9524,95.7428 C78.2334,96.4488 77.0774,96.4378 76.3714,95.7178" id="Fill-32" fill="#FEFEFE"></path>
            <path d="M72.4199,56.6175 C72.4299,55.6105 73.2539,54.8015 74.2619,54.8105 C75.2689,54.8205 76.0779,55.6445 76.0679,56.6525 C76.0589,57.6595 75.2339,58.4685 74.2269,58.4595 C73.2189,58.4495 72.4099,57.6245 72.4199,56.6175" id="Fill-34" fill="#FEFEFE"></path>
            <path d="M74.4928,65.9069 C74.5048,64.6419 75.5398,63.6269 76.8048,63.6389 C78.0698,63.6509 79.0848,64.6859 79.0728,65.9509 C79.0608,67.2159 78.0258,68.2309 76.7608,68.2189 C75.4958,68.2069 74.4808,67.1719 74.4928,65.9069" id="Fill-36" fill="#FEFEFE"></path>
            <path d="M73.2118,75.5202 C73.2268,73.9392 74.5208,72.6702 76.1018,72.6852 C77.6828,72.7002 78.9518,73.9942 78.9368,75.5752 C78.9218,77.1562 77.6278,78.4252 76.0468,78.4102 C74.4658,78.3952 73.1968,77.1012 73.2118,75.5202" id="Fill-38" fill="#FEFEFE"></path>
            <path d="M69.3068,84.4652 C69.3238,82.7202 70.7518,81.3192 72.4958,81.3362 C74.2408,81.3532 75.6418,82.7812 75.6248,84.5252 C75.6088,86.2702 74.1808,87.6712 72.4358,87.6542 C70.6908,87.6382 69.2898,86.2102 69.3068,84.4652" id="Fill-40" fill="#FEFEFE"></path>
            <path d="M63.2241,92.0088 C63.2411,90.2358 64.6921,88.8118 66.4651,88.8288 C68.2381,88.8458 69.6621,90.2968 69.6451,92.0698 C69.6281,93.8428 68.1771,95.2668 66.4041,95.2498 C64.6311,95.2328 63.2071,93.7818 63.2241,92.0088" id="Fill-42" fill="#FEFEFE"></path>
            <path d="M55.4977,97.5427 C55.5137,95.8717 56.8817,94.5297 58.5527,94.5457 C60.2237,94.5617 61.5657,95.9297 61.5497,97.6007 C61.5337,99.2717 60.1657,100.6137 58.4947,100.5977 C56.8237,100.5817 55.4817,99.2137 55.4977,97.5427" id="Fill-44" fill="#FEFEFE"></path>
            <g id="Group-48" transform="translate(46.750073, 97.931973)">
                <mask id="mask-4" fill="white">
                    <use xlink:href="#path-3"></use>
                </mask>
                <g id="Clip-47"></g>
                <path d="M0.000127137835,2.55312725 C0.0141271378,1.12912725 1.17912714,-0.0138727526 2.60312714,0.000127247391 C4.02712714,0.0131272474 5.17012714,1.17812725 5.15612714,2.60212725 C5.14212714,4.02612725 3.97712714,5.16912725 2.55312714,5.15612725 C1.13012714,5.14212725 -0.0138728622,3.97712725 0.000127137835,2.55312725" id="Fill-46" fill="#FEFEFE" mask="url(#mask-4)"></path>
            </g>
            <path d="M37.8637,100.334 C37.8737,99.326 38.6987,98.517 39.7067,98.526 C40.7147,98.536 41.5237,99.361 41.5147,100.369 C41.5047,101.377 40.6797,102.186 39.6717,102.177 C38.6637,102.167 37.8537,101.342 37.8637,100.334" id="Fill-49" fill="#FEFEFE"></path>
            <path d="M62.7174,69.893 C63.4364,69.187 64.5914,69.198 65.2974,69.918 C66.0024,70.637 65.9914,71.792 65.2724,72.497 C64.5534,73.203 63.3984,73.192 62.6924,72.473 C61.9874,71.753 61.9984,70.599 62.7174,69.893" id="Fill-51" fill="#FEFEFE"></path>
            <path d="M57.6146,77.9274 C58.5176,77.0414 59.9676,77.0554 60.8536,77.9584 C61.7396,78.8614 61.7256,80.3114 60.8226,81.1974 C59.9196,82.0834 58.4696,82.0694 57.5836,81.1664 C56.6976,80.2634 56.7116,78.8134 57.6146,77.9274" id="Fill-53" fill="#FEFEFE"></path>
            <path d="M49.9112,83.8192 C51.0402,82.7122 52.8522,82.7292 53.9592,83.8582 C55.0662,84.9862 55.0492,86.7992 53.9202,87.9062 C52.7922,89.0132 50.9792,88.9962 49.8722,87.8672 C48.7652,86.7392 48.7822,84.9262 49.9112,83.8192" id="Fill-55" fill="#FEFEFE"></path>
            <path d="M40.8249,87.3831 C42.0709,86.1611 44.0709,86.1801 45.2929,87.4261 C46.5149,88.6711 46.4959,90.6721 45.2499,91.8931 C44.0039,93.1151 42.0039,93.0961 40.7819,91.8511 C39.5599,90.6051 39.5789,88.6051 40.8249,87.3831" id="Fill-57" fill="#FEFEFE"></path>
            <path d="M31.1896,88.416 C32.4556,87.174 34.4876,87.194 35.7296,88.459 C36.9716,89.725 36.9516,91.758 35.6866,93 C34.4206,94.241 32.3876,94.222 31.1466,92.956 C29.9046,91.69 29.9236,89.658 31.1896,88.416" id="Fill-59" fill="#FEFEFE"></path>
            <path d="M21.8132,86.8657 C23.0062,85.6947 24.9222,85.7137 26.0932,86.9067 C27.2632,88.0997 27.2452,90.0157 26.0522,91.1867 C24.8592,92.3567 22.9432,92.3387 21.7722,91.1457 C20.6012,89.9527 20.6202,88.0367 21.8132,86.8657" id="Fill-61" fill="#FEFEFE"></path>
            <path d="M13.5471,82.761 C14.5631,81.764 16.1961,81.779 17.1931,82.796 C18.1901,83.812 18.1751,85.445 17.1581,86.442 C16.1421,87.439 14.5091,87.423 13.5121,86.407 C12.5151,85.391 12.5311,83.758 13.5471,82.761" id="Fill-63" fill="#FEFEFE"></path>
            <path d="M7.3703,76.3703 C8.0903,75.6643 9.2453,75.6753 9.9513,76.3953 C10.6573,77.1143 10.6463,78.2703 9.9273,78.9763 C9.2073,79.6823 8.0513,79.6713 7.3453,78.9513 C6.6393,78.2323 6.6503,77.0763 7.3703,76.3703" id="Fill-65" fill="#FEFEFE"></path>
            <path d="M46.4705,72.4198 C47.4775,72.4298 48.2865,73.2538 48.2775,74.2618 C48.2675,75.2688 47.4435,76.0778 46.4355,76.0678 C45.4285,76.0588 44.6195,75.2338 44.6285,74.2268 C44.6385,73.2188 45.4635,72.4098 46.4705,72.4198" id="Fill-67" fill="#FEFEFE"></path>
            <path d="M37.1811,74.4927 C38.4461,74.5047 39.4611,75.5397 39.4491,76.8047 C39.4371,78.0697 38.4021,79.0857 37.1371,79.0727 C35.8721,79.0607 34.8571,78.0257 34.8691,76.7607 C34.8811,75.4957 35.9161,74.4807 37.1811,74.4927" id="Fill-69" fill="#FEFEFE"></path>
            <path d="M27.5678,73.2118 C29.1488,73.2268 30.4178,74.5208 30.4028,76.1018 C30.3878,77.6828 29.0938,78.9518 27.5128,78.9368 C25.9318,78.9218 24.6628,77.6278 24.6778,76.0468 C24.6928,74.4658 25.9868,73.1968 27.5678,73.2118" id="Fill-71" fill="#FEFEFE"></path>
            <path d="M18.6228,69.3068 C20.3678,69.3238 21.7688,70.7518 21.7518,72.4958 C21.7348,74.2408 20.3068,75.6418 18.5628,75.6248 C16.8178,75.6088 15.4168,74.1808 15.4338,72.4358 C15.4498,70.6908 16.8778,69.2898 18.6228,69.3068" id="Fill-73" fill="#FEFEFE"></path>
            <path d="M11.0792,63.224 C12.8522,63.241 14.2762,64.692 14.2592,66.465 C14.2422,68.238 12.7912,69.662 11.0182,69.645 C9.2452,69.628 7.8212,68.177 7.8382,66.404 C7.8552,64.631 9.3062,63.207 11.0792,63.224" id="Fill-75" fill="#FEFEFE"></path>
            <path d="M5.5453,55.4977 C7.2163,55.5137 8.5583,56.8817 8.5423,58.5527 C8.5263,60.2237 7.1583,61.5657 5.4873,61.5497 C3.8163,61.5337 2.4743,60.1657 2.4903,58.4947 C2.5063,56.8237 3.8743,55.4817 5.5453,55.4977" id="Fill-77" fill="#FEFEFE"></path>
            <g id="Group-81" transform="translate(0.000000, 46.750073)">
                <mask id="mask-6" fill="white">
                    <use xlink:href="#path-5"></use>
                </mask>
                <g id="Clip-80"></g>
                <path d="M2.6029,0.000127137835 C4.0269,0.0141271378 5.1699,1.17912714 5.1559,2.60312714 C5.1429,4.02712714 3.9779,5.17012714 2.5539,5.15612714 C1.1299,5.14312714 -0.0131,3.97712714 -0.0001,2.55312714 C0.0139,1.13012714 1.1789,-0.0138728622 2.6029,0.000127137835" id="Fill-79" fill="#FEFEFE" mask="url(#mask-6)"></path>
            </g>
            <path d="M2.754,37.8637 C3.762,37.8737 4.571,38.6987 4.562,39.7067 C4.552,40.7147 3.727,41.5237 2.719,41.5147 C1.711,41.5047 0.902,40.6797 0.911,39.6717 C0.921,38.6637 1.746,37.8537 2.754,37.8637" id="Fill-82" fill="#FEFEFE"></path>
            <path d="M33.1956,62.7174 C33.9016,63.4364 33.8906,64.5914 33.1706,65.2974 C32.4516,66.0024 31.2966,65.9914 30.5916,65.2724 C29.8856,64.5534 29.8966,63.3984 30.6156,62.6924 C31.3356,61.9874 32.4896,61.9984 33.1956,62.7174" id="Fill-84" fill="#FEFEFE"></path>
            <path d="M25.1612,57.6146 C26.0472,58.5176 26.0332,59.9676 25.1302,60.8536 C24.2272,61.7396 22.7772,61.7256 21.8912,60.8226 C21.0052,59.9196 21.0192,58.4696 21.9222,57.5836 C22.8252,56.6976 24.2752,56.7116 25.1612,57.6146" id="Fill-86" fill="#FEFEFE"></path>
            <path d="M19.2694,49.9112 C20.3764,51.0402 20.3594,52.8522 19.2304,53.9592 C18.1024,55.0662 16.2894,55.0492 15.1824,53.9202 C14.0754,52.7922 14.0924,50.9792 15.2214,49.8722 C16.3494,48.7652 18.1624,48.7822 19.2694,49.9112" id="Fill-88" fill="#FEFEFE"></path>
            <path d="M15.7056,40.8249 C16.9276,42.0709 16.9086,44.0709 15.6626,45.2929 C14.4176,46.5149 12.4166,46.4959 11.1956,45.2499 C9.9736,44.0039 9.9926,42.0039 11.2376,40.7819 C12.4836,39.5599 14.4836,39.5789 15.7056,40.8249" id="Fill-90" fill="#FEFEFE"></path>
            <path d="M14.6726,31.1895 C15.9146,32.4555 15.8946,34.4875 14.6296,35.7295 C13.3636,36.9715 11.3306,36.9515 10.0886,35.6865 C8.8476,34.4205 8.8666,32.3875 10.1326,31.1465 C11.3986,29.9045 13.4306,29.9235 14.6726,31.1895" id="Fill-92" fill="#FEFEFE"></path>
            <path d="M16.2229,21.8132 C17.3929,23.0062 17.3749,24.9222 16.1819,26.0932 C14.9889,27.2632 13.0729,27.2452 11.9019,26.0522 C10.7319,24.8592 10.7499,22.9432 11.9429,21.7722 C13.1359,20.6012 15.0519,20.6202 16.2229,21.8132" id="Fill-94" fill="#FEFEFE"></path>
            <path d="M20.3277,13.5471 C21.3247,14.5631 21.3097,16.1961 20.2927,17.1931 C19.2767,18.1901 17.6437,18.1741 16.6467,17.1581 C15.6497,16.1421 15.6657,14.5091 16.6817,13.5121 C17.6977,12.5151 19.3307,12.5311 20.3277,13.5471" id="Fill-96" fill="#FEFEFE"></path>
            <path d="M26.7183,7.3703 C27.4243,8.0903 27.4133,9.2453 26.6933,9.9513 C25.9743,10.6573 24.8183,10.6463 24.1123,9.9273 C23.4063,9.2073 23.4173,8.0513 24.1373,7.3453 C24.8563,6.6393 26.0123,6.6503 26.7183,7.3703" id="Fill-98" fill="#FEFEFE"></path>
            <path d="M30.6694,46.4705 C30.6594,47.4775 29.8354,48.2865 28.8274,48.2775 C27.8204,48.2675 27.0114,47.4435 27.0214,46.4355 C27.0304,45.4285 27.8554,44.6195 28.8624,44.6285 C29.8704,44.6385 30.6794,45.4635 30.6694,46.4705" id="Fill-100" fill="#FEFEFE"></path>
            <path d="M28.5965,37.1811 C28.5845,38.4461 27.5495,39.4611 26.2845,39.4491 C25.0195,39.4371 24.0035,38.4021 24.0165,37.1371 C24.0285,35.8721 25.0635,34.8571 26.3285,34.8691 C27.5935,34.8811 28.6085,35.9161 28.5965,37.1811" id="Fill-102" fill="#FEFEFE"></path>
            <path d="M29.8775,27.5678 C29.8625,29.1488 28.5685,30.4178 26.9875,30.4028 C25.4065,30.3878 24.1375,29.0938 24.1525,27.5128 C24.1675,25.9318 25.4615,24.6628 27.0425,24.6778 C28.6235,24.6928 29.8925,25.9868 29.8775,27.5678" id="Fill-104" fill="#FEFEFE"></path>
            <path d="M33.7825,18.6228 C33.7655,20.3678 32.3375,21.7688 30.5935,21.7518 C28.8485,21.7348 27.4475,20.3068 27.4645,18.5628 C27.4805,16.8178 28.9085,15.4168 30.6535,15.4338 C32.3985,15.4498 33.7995,16.8778 33.7825,18.6228" id="Fill-106" fill="#FEFEFE"></path>
            <path d="M39.8652,11.0792 C39.8482,12.8522 38.3972,14.2762 36.6242,14.2592 C34.8512,14.2422 33.4272,12.7912 33.4442,11.0182 C33.4612,9.2452 34.9122,7.8212 36.6852,7.8382 C38.4582,7.8552 39.8822,9.3062 39.8652,11.0792" id="Fill-108" fill="#FEFEFE"></path>
            <path d="M47.5916,5.5453 C47.5756,7.2163 46.2076,8.5583 44.5366,8.5423 C42.8656,8.5263 41.5236,7.1583 41.5396,5.4873 C41.5556,3.8163 42.9236,2.4743 44.5946,2.4903 C46.2656,2.5063 47.6076,3.8743 47.5916,5.5453" id="Fill-110" fill="#FEFEFE"></path>
            <g id="Group-114" transform="translate(51.182973, 0.000000)">
                <mask id="mask-8" fill="white">
                    <use xlink:href="#path-7"></use>
                </mask>
                <g id="Clip-113"></g>
                <path d="M5.15612725,2.6029 C5.14212725,4.0269 3.97712725,5.1699 2.55312725,5.1559 C1.12912725,5.1429 -0.0138727526,3.9779 0.000127247391,2.5539 C0.0131272474,1.1299 1.17912725,-0.0131 2.60312725,-0.0001 C4.02612725,0.0139 5.17012725,1.1789 5.15612725,2.6029" id="Fill-112" fill="#FEFEFE" mask="url(#mask-8)"></path>
            </g>
            <path d="M65.2256,2.754 C65.2156,3.762 64.3906,4.571 63.3826,4.562 C62.3746,4.552 61.5656,3.727 61.5746,2.719 C61.5846,1.711 62.4096,0.902 63.4176,0.911 C64.4256,0.921 65.2356,1.746 65.2256,2.754" id="Fill-115" fill="#FEFEFE"></path>
            <path d="M40.3717,33.1946 C39.6527,33.9006 38.4977,33.8896 37.7917,33.1696 C37.0867,32.4506 37.0977,31.2956 37.8167,30.5906 C38.5357,29.8846 39.6907,29.8956 40.3967,30.6146 C41.1017,31.3346 41.0907,32.4886 40.3717,33.1946" id="Fill-117" fill="#FEFEFE"></path>
            <path d="M45.4746,25.1602 C44.5716,26.0462 43.1216,26.0322 42.2356,25.1292 C41.3496,24.2262 41.3636,22.7762 42.2666,21.8902 C43.1696,21.0042 44.6196,21.0182 45.5056,21.9212 C46.3916,22.8242 46.3776,24.2742 45.4746,25.1602" id="Fill-119" fill="#FEFEFE"></path>
            <path d="M53.178,19.2683 C52.049,20.3753 50.237,20.3583 49.13,19.2293 C48.023,18.1013 48.04,16.2883 49.169,15.1813 C50.297,14.0743 52.11,14.0913 53.217,15.2203 C54.324,16.3483 54.307,18.1613 53.178,19.2683" id="Fill-121" fill="#FEFEFE"></path>
            <path d="M62.2643,15.7045 C61.0183,16.9265 59.0183,16.9075 57.7963,15.6615 C56.5743,14.4165 56.5933,12.4155 57.8393,11.1945 C59.0853,9.9725 61.0853,9.9915 62.3073,11.2365 C63.5293,12.4825 63.5103,14.4825 62.2643,15.7045" id="Fill-123" fill="#FEFEFE"></path>
            <path d="M71.8996,14.6715 C70.6336,15.9135 68.6016,15.8935 67.3596,14.6285 C66.1176,13.3625 66.1376,11.3295 67.4026,10.0875 C68.6686,8.8465 70.7016,8.8655 71.9426,10.1315 C73.1846,11.3975 73.1656,13.4295 71.8996,14.6715" id="Fill-125" fill="#FEFEFE"></path>
            <path d="M81.276,16.2219 C80.083,17.3919 78.167,17.3739 76.996,16.1809 C75.826,14.9879 75.844,13.0719 77.037,11.9009 C78.23,10.7309 80.146,10.7489 81.317,11.9419 C82.488,13.1349 82.469,15.0509 81.276,16.2219" id="Fill-127" fill="#FEFEFE"></path>
            <path d="M89.542,20.3266 C88.526,21.3236 86.893,21.3086 85.896,20.2916 C84.899,19.2756 84.914,17.6426 85.931,16.6456 C86.947,15.6486 88.58,15.6646 89.577,16.6806 C90.574,17.6966 90.558,19.3296 89.542,20.3266" id="Fill-129" fill="#FEFEFE"></path>
            <path d="M95.7189,26.7172 C94.9989,27.4232 93.8439,27.4122 93.1379,26.6922 C92.4319,25.9732 92.4429,24.8172 93.1619,24.1112 C93.8819,23.4052 95.0379,23.4162 95.7439,24.1362 C96.4499,24.8552 96.4389,26.0112 95.7189,26.7172" id="Fill-131" fill="#FEFEFE"></path>
        </g>
    </g>
</svg>